<svg width="233" height="186" viewBox="0 0 233 186" fill="none" xmlns="http://www.w3.org/2000/svg">
<g clip-path="url(#clip0_220_8927)">
<path fill-rule="evenodd" clip-rule="evenodd" d="M163.849 116.331H162.083V47.1112C162.492 42.7813 158.533 38.9523 154.028 39.173H146.775V20.444H131.416V10.8927C131.757 6.10429 127.303 1.67249 122.345 2.01209H111.602C106.841 1.67249 102.608 5.95996 102.677 10.7738V20.5204H87.488V39.173H80.3033C75.6102 38.6212 71.5229 42.8322 72.1288 47.5188V116.331H70.243V47.1112C69.7822 41.771 74.4071 37.025 80.0388 37.3647H85.406V18.7884H100.723V11.6398C100.262 5.1619 105.825 -0.322676 112.327 0.0169265H122.806C128.463 0.0169265 133.088 4.68645 133.088 10.2899L133.301 12.0473L133.088 18.7884H148.592V37.0251L151.613 37.1524C152.099 37.1524 152.483 37.3647 153.038 37.3647H155.461C160.154 37.5599 164.242 41.9663 163.9 46.7801L163.849 116.331Z" fill="#231F20"/>
<path fill-rule="evenodd" clip-rule="evenodd" d="M2.49161 149.06V134.882H0V134.279H7.6711V134.882H5.17948V141.427H11.8266V134.882H9.48861V134.279H17.0061V134.882H14.5913V149.06H17.0061V149.663H9.48861V149.06H11.8266V142.03H5.17948V149.06H7.6711V149.663H0V149.06H2.49161ZM30.5052 149.994C28.4744 149.994 26.8019 149.179 25.4025 147.515C23.969 145.859 23.3205 144.051 23.3205 142.174C23.3205 139.916 24.0458 137.963 25.4452 136.376C26.947 134.763 28.6194 133.965 30.5479 133.965C32.3654 133.965 34.0634 134.763 35.4628 136.376C36.8622 138.031 37.6131 139.916 37.6131 141.979C37.6131 144.042 36.8622 145.978 35.4628 147.591C33.9866 149.179 32.3654 149.994 30.5052 149.994ZM30.5052 134.567C29.6775 134.567 28.8839 134.686 28.2098 135.102C27.5528 135.484 27.1432 136.155 26.8787 137.097C26.6057 138.108 26.5374 139.695 26.5374 142.107C26.5374 143.711 26.6057 145.036 26.7336 146.046C26.8787 146.988 27.2115 147.786 27.7491 148.457C28.3549 149.128 29.2253 149.391 30.4284 149.391C31.1537 149.391 31.9046 149.179 32.6299 148.865C33.3808 148.457 33.8416 147.659 34.0634 146.504C34.3279 145.375 34.3962 143.643 34.3962 141.308C34.3962 139.169 34.2512 137.624 33.9866 136.834C33.7221 136.036 33.2357 135.433 32.6299 135.102C32.0497 134.686 31.2988 134.567 30.5052 134.567ZM56.9402 134.882H54.3974V134.279H59.8926V134.882H57.4948V144.17C57.4948 145.52 57.3498 146.504 57.1621 147.107C56.9402 147.786 56.5989 148.313 56.0698 148.72C55.5408 149.179 54.8582 149.518 54.1329 149.731C53.382 149.926 52.6567 149.994 51.8375 149.994C50.1651 149.994 48.8851 149.731 48.1598 149.179C47.3407 148.652 46.8799 148.05 46.6836 147.252C46.4703 146.504 46.4191 145.452 46.4191 144.17V134.882H44.192V134.279H51.573V134.882H49.1496V143.906C49.1496 145.112 49.1496 146.122 49.2947 146.844C49.4227 147.515 49.7128 148.118 50.2419 148.601C50.7709 149.06 51.5218 149.323 52.6567 149.323C53.527 149.323 54.3291 149.128 55.0032 148.797C55.7285 148.381 56.2149 147.931 56.4794 147.328C56.8207 146.725 56.9402 145.596 56.9402 143.906V134.882ZM75.3457 134.16L75.4225 138.108H74.8849C74.1426 135.705 72.7858 134.567 70.8489 134.567C69.7822 134.567 68.8863 134.831 68.3573 135.433C67.7514 136.036 67.4101 136.639 67.4101 137.242C67.4101 137.845 67.6831 138.371 68.161 138.761C68.6986 139.169 69.5689 139.5 70.9257 139.695C72.18 139.916 73.1954 140.247 73.8695 140.51C74.5948 140.85 75.158 141.376 75.6102 142.174C76.071 142.922 76.3611 143.788 76.3611 144.73C76.3611 146.241 75.8065 147.515 74.8849 148.525C73.8695 149.518 72.6664 149.994 71.1902 149.994C70.0468 149.994 68.8436 149.586 67.632 148.652L66.5397 149.663H66.1558V145.375H66.6848C67.1029 146.725 67.7514 147.71 68.5791 148.381C69.3727 149.06 70.243 149.391 71.2584 149.391C72.18 149.391 73.076 149.128 73.8695 148.457C74.6716 147.854 75.0812 147.056 75.0812 146.122C75.0812 145.256 74.8167 144.586 74.2108 144.051C73.6818 143.524 72.7858 143.117 71.523 142.922C70.243 142.701 69.3044 142.438 68.6218 142.174C67.9733 141.911 67.4101 141.376 66.9579 140.706C66.4971 140.035 66.2069 139.237 66.2069 138.447C66.2069 137.242 66.6165 136.231 67.4869 135.289C68.289 134.423 69.4495 133.965 70.8489 133.965C72.0605 133.965 73.1186 134.279 74.1426 135.102C74.4754 134.831 74.6716 134.499 74.8849 134.16H75.3457ZM88.0427 134.882V141.427H89.3738C89.9114 141.427 90.321 141.427 90.6623 141.308C90.9951 141.232 91.3364 140.969 91.6009 140.561C91.8655 140.103 91.9849 139.432 92.0617 138.566H92.6675V145.036H92.0617C91.9849 143.839 91.7204 143.04 91.3364 142.633C90.9268 142.251 90.2442 142.03 89.3738 142.03H88.0427V149.06H91.1914C92.9321 149.06 94.1437 148.652 94.8946 147.931C95.5431 147.184 95.9527 146.046 96.0978 144.509H96.7036L96.4903 149.663H82.8718V149.06H85.2866V134.882H82.8718V134.279H95.9527L96.2258 138.371H95.6199C95.4237 137.165 95.0141 136.231 94.4083 135.705C93.8024 135.17 92.7358 134.882 91.3364 134.882H88.0427ZM121.935 149.994C119.93 149.994 118.258 149.179 116.833 147.515C115.425 145.859 114.751 144.051 114.751 142.174C114.751 139.916 115.502 137.963 116.901 136.376C118.377 134.763 120.075 133.965 122.004 133.965C123.821 133.965 125.511 134.763 126.919 136.376C128.318 138.031 129.069 139.916 129.069 141.979C129.069 144.042 128.318 145.978 126.919 147.591C125.443 149.179 123.821 149.994 121.935 149.994ZM121.935 134.567C121.133 134.567 120.34 134.686 119.657 135.102C118.983 135.484 118.599 136.155 118.309 137.097C118.036 138.108 117.993 139.695 117.993 142.107C117.993 143.711 118.036 145.036 118.181 146.046C118.309 146.988 118.642 147.786 119.196 148.457C119.802 149.128 120.673 149.391 121.884 149.391C122.61 149.391 123.36 149.179 124.086 148.865C124.837 148.457 125.297 147.659 125.511 146.504C125.775 145.375 125.826 143.643 125.826 141.308C125.826 139.169 125.707 137.624 125.443 136.834C125.178 136.036 124.692 135.433 124.086 135.102C123.48 134.686 122.755 134.567 121.935 134.567ZM137.994 149.06V134.882H135.58V134.279H148.592L148.806 138.906H148.277C148.277 138.761 148.132 138.227 147.867 137.361C147.594 136.427 147.184 135.824 146.724 135.433C146.169 135.102 145.299 134.882 144.087 134.882H140.751V141.504H141.356C142.013 141.504 142.568 141.504 142.952 141.376C143.362 141.308 143.703 141.045 143.967 140.638C144.232 140.247 144.428 139.577 144.505 138.634H145.102V145.112H144.505C144.428 144.17 144.309 143.448 144.044 143.04C143.771 142.582 143.481 142.319 143.097 142.251C142.688 142.107 142.159 142.03 141.356 142.03H140.751V149.06H143.438V149.663H135.58V149.06H137.994ZM179.695 134.882V149.994H179.208L169.08 134.831H169.003V149.06H171.64V149.663H166.196V149.06H168.474V134.882H165.982V134.279H171.904L179.089 145.036H179.14V134.882H176.597V134.279H182.041V134.882H179.695ZM190.626 149.06V134.882H188.134V134.279H195.924V134.882H193.382V149.06H195.924V149.663H188.134V149.06H190.626ZM211.642 134.16L211.77 138.108H211.19C210.439 135.705 209.082 134.567 207.145 134.567C206.087 134.567 205.259 134.831 204.654 135.433C204.048 136.036 203.715 136.639 203.715 137.242C203.715 137.845 203.98 138.371 204.534 138.761C204.995 139.169 205.865 139.5 207.222 139.695C208.476 139.916 209.492 140.247 210.174 140.51C210.9 140.85 211.454 141.376 211.915 142.174C212.376 142.922 212.666 143.788 212.666 144.73C212.666 146.241 212.18 147.515 211.19 148.525C210.174 149.518 208.963 149.994 207.487 149.994C206.352 149.994 205.14 149.586 203.928 148.652L202.845 149.663H202.452V145.375H202.99C203.399 146.725 204.048 147.71 204.876 148.381C205.669 149.06 206.539 149.391 207.555 149.391C208.476 149.391 209.372 149.128 210.174 148.457C210.968 147.854 211.378 147.056 211.378 146.122C211.378 145.256 211.113 144.586 210.507 144.051C209.978 143.524 209.082 143.117 207.828 142.922C206.616 142.701 205.601 142.438 204.918 142.174C204.321 141.911 203.715 141.376 203.254 140.706C202.793 140.035 202.503 139.237 202.503 138.447C202.503 137.242 202.913 136.231 203.783 135.289C204.585 134.423 205.746 133.965 207.145 133.965C208.357 133.965 209.424 134.279 210.439 135.102C210.772 134.831 210.968 134.499 211.19 134.16H211.642ZM224.348 134.882V141.427H225.747C226.208 141.427 226.617 141.427 226.959 141.308C227.291 141.232 227.633 140.969 227.897 140.561C228.17 140.103 228.29 139.432 228.358 138.566H228.964V145.036H228.358C228.29 143.839 228.025 143.04 227.633 142.633C227.223 142.251 226.549 142.03 225.747 142.03H224.348V149.06H227.488C229.228 149.06 230.517 148.652 231.191 147.931C231.84 147.184 232.258 146.046 232.403 144.509H233L232.787 149.663H219.168V149.06H221.591V134.882H219.168V134.279H232.258L232.522 138.371H231.916C231.72 137.165 231.31 136.231 230.705 135.705C230.099 135.17 229.041 134.882 227.633 134.882H224.348ZM224.732 133.031L224.467 132.768L226.762 130.025C227.223 129.49 227.488 129.151 227.752 128.938C227.949 128.82 228.17 128.675 228.435 128.675C228.699 128.675 228.896 128.82 229.109 128.938C229.305 129.151 229.374 129.346 229.374 129.541C229.374 129.881 229.228 130.144 229.041 130.356C228.768 130.62 228.29 130.959 227.633 131.341L224.732 133.031Z" fill="#231F20"/>
<path fill-rule="evenodd" clip-rule="evenodd" d="M67.0261 180.465V185.329H68.8863V185.737H63.2034V185.329H64.9953V174.708H63.2034V174.233H69.1082C70.4393 174.233 71.4547 174.522 72.1288 175.124C72.8541 175.727 73.1954 176.449 73.1954 177.315C73.1954 178.249 72.8541 178.996 72.1288 179.599C71.4547 180.176 70.3198 180.465 68.6986 180.465H67.0261ZM67.0261 174.708V180.057H68.161C68.7668 180.057 69.2276 179.981 69.6372 179.862C69.9785 179.794 70.3198 179.522 70.5843 179.115C70.9257 178.707 71.0451 178.053 71.0451 177.187C71.0451 176.372 70.9257 175.846 70.6526 175.439C70.4393 175.124 70.098 174.904 69.7823 174.785C69.4495 174.708 69.0314 174.708 68.5791 174.708H67.0261ZM80.1839 174.708V179.599H81.2505C81.5918 179.599 81.9246 179.599 82.1891 179.522C82.4622 179.454 82.6755 179.259 82.8718 178.928C83.068 178.588 83.2131 178.104 83.2131 177.459H83.6653V182.315H83.2131C83.2131 181.382 82.9912 180.779 82.6755 180.465C82.3854 180.176 81.8563 180.057 81.2505 180.057H80.1839V185.329H82.5304C83.8616 185.329 84.8087 184.99 85.3634 184.463C85.8241 183.929 86.1569 183.063 86.2337 181.857H86.6945L86.575 185.737H76.3611V185.329H78.1787V174.708H76.3611V174.233H86.1569L86.3532 177.315H85.8924C85.7474 176.372 85.4828 175.727 85.0221 175.311C84.5357 174.904 83.7421 174.708 82.6755 174.708H80.1839ZM92.2068 185.329V174.708H90.3893V174.233H96.7036C97.5057 174.233 98.1798 174.301 98.7174 174.445C99.2464 174.564 99.7328 174.904 100.117 175.388C100.458 175.77 100.646 176.304 100.646 176.899C100.646 177.646 100.381 178.181 99.8523 178.656C99.2464 179.115 98.2993 179.454 96.9681 179.65V179.717C97.9153 179.913 98.7174 180.244 99.3147 180.779C99.9973 181.382 100.262 182.273 100.262 183.589C100.262 184.336 100.381 184.795 100.526 184.99C100.723 185.202 100.936 185.329 101.252 185.329C101.474 185.329 101.738 185.253 102.003 185.202V185.593C101.474 185.805 100.987 185.856 100.526 185.856C99.5877 185.856 98.9051 185.593 98.5211 185.058C98.1116 184.531 97.9665 184.047 97.9665 183.521V182.052C97.9665 181.594 97.8385 181.067 97.5057 180.583C97.1644 180.057 96.4391 179.862 95.2786 179.862H94.212V185.329H96.0295V185.737H90.3893V185.329H92.2068ZM94.212 174.708V179.454H95.765C96.4391 179.454 96.9681 179.378 97.3095 179.31C97.6508 179.191 97.9153 178.996 98.1116 178.588C98.3761 178.249 98.4443 177.646 98.4443 176.856C98.4443 176.177 98.3761 175.651 98.1116 175.388C97.9153 175.048 97.6508 174.836 97.3607 174.785C97.0449 174.708 96.7036 174.708 96.149 174.708H94.212ZM106.909 185.329V174.708H105.1V174.233H114.819L114.964 177.722H114.555C114.555 177.578 114.486 177.238 114.29 176.517C114.094 175.846 113.761 175.388 113.42 175.124C113.01 174.836 112.327 174.708 111.414 174.708H108.923V179.65H109.384C109.938 179.65 110.322 179.65 110.587 179.599C110.86 179.522 111.124 179.31 111.338 178.996C111.602 178.656 111.73 178.181 111.73 177.502H112.208V182.392H111.73C111.73 181.67 111.602 181.11 111.414 180.779C111.193 180.465 111.005 180.244 110.663 180.176C110.399 180.125 109.981 180.057 109.384 180.057H108.923V185.329H110.928V185.737H105.1V185.329H106.909ZM127.525 174.708H125.63V174.233H129.794V174.708H127.977V181.67C127.977 182.655 127.857 183.402 127.712 183.861C127.593 184.336 127.303 184.727 126.919 185.058C126.509 185.397 126.048 185.593 125.443 185.805C124.905 185.924 124.308 186 123.744 186C122.49 186 121.543 185.805 120.946 185.397C120.408 184.99 119.999 184.531 119.853 183.929C119.734 183.402 119.657 182.579 119.657 181.67V174.708H117.993V174.233H123.48V174.708H121.671V181.449C121.671 182.392 121.739 183.139 121.816 183.589C121.935 184.124 122.149 184.608 122.541 184.939C122.874 185.329 123.48 185.474 124.308 185.474C124.956 185.474 125.562 185.329 126.091 185.058C126.654 184.795 127.038 184.463 127.251 184.005C127.448 183.521 127.525 182.655 127.525 181.449V174.708ZM132.695 174.233H136.783L139.274 182.392H139.326L141.817 174.233H145.853V174.708H144.087V185.329H145.853V185.737H140.409V185.329H142.159V174.522L138.72 185.737H138.336L134.829 174.522V185.329H136.595V185.737H132.695V185.329H134.368V174.708H132.695V174.233ZM153.089 174.708V179.599H154.105C154.514 179.599 154.779 179.599 155.043 179.522C155.316 179.454 155.504 179.259 155.726 178.928C155.914 178.588 156.059 178.104 156.11 177.459H156.519V182.315H156.11C156.059 181.382 155.845 180.779 155.581 180.465C155.239 180.176 154.779 180.057 154.105 180.057H153.089V185.329H155.461C156.792 185.329 157.663 184.99 158.192 184.463C158.747 183.929 159.011 183.063 159.13 181.857H159.549L159.472 185.737H149.19V185.329H151.007V174.708H149.19V174.233H159.011L159.207 177.315H158.798C158.601 176.372 158.337 175.727 157.851 175.311C157.39 174.904 156.596 174.708 155.504 174.708H153.089ZM170.019 174.114L170.095 177.12H169.677C169.08 175.311 168.056 174.445 166.588 174.445C165.786 174.445 165.18 174.64 164.72 175.124C164.31 175.506 164.045 175.99 164.045 176.449C164.045 176.907 164.242 177.238 164.651 177.578C164.984 177.909 165.641 178.104 166.657 178.325C167.672 178.444 168.397 178.656 168.884 178.928C169.413 179.191 169.822 179.599 170.215 180.125C170.548 180.728 170.744 181.331 170.744 182.052C170.744 183.181 170.36 184.124 169.609 184.871C168.884 185.593 168.013 186 166.853 186C165.982 186 165.112 185.661 164.242 184.99L163.44 185.737H163.098V182.536H163.516C163.849 183.521 164.31 184.268 164.916 184.795C165.522 185.329 166.196 185.542 166.921 185.542C167.604 185.542 168.278 185.329 168.884 184.871C169.489 184.387 169.754 183.784 169.754 183.063C169.754 182.46 169.532 181.933 169.148 181.526C168.739 181.11 168.056 180.847 167.143 180.66C166.196 180.516 165.445 180.32 164.984 180.125C164.506 179.913 164.045 179.599 163.704 179.047C163.371 178.512 163.175 177.986 163.175 177.315C163.175 176.449 163.516 175.727 164.114 174.98C164.72 174.301 165.59 173.97 166.588 173.97C167.527 173.97 168.346 174.233 169.08 174.836C169.344 174.64 169.489 174.377 169.677 174.114H170.019Z" fill="#231F20"/>
<path fill-rule="evenodd" clip-rule="evenodd" d="M16.8856 160.589H219.261V161.328H16.8856V160.589Z" fill="#231F20"/>
</g>
<defs>
<clipPath id="clip0_220_8927">
<rect width="233" height="186" fill="white"/>
</clipPath>
</defs>
</svg>
