<svg width="130" height="106" viewBox="0 0 130 106" fill="none" xmlns="http://www.w3.org/2000/svg">
<g clip-path="url(#clip0_577_7829)">
<path fill-rule="evenodd" clip-rule="evenodd" d="M91.4191 66.1703H90.4336V27.0949C90.6621 24.6506 88.4531 22.4891 85.9393 22.6137H81.8926V12.0408H73.3231V6.64896C73.5135 3.94584 71.0283 1.44402 68.2623 1.63573H62.2684C59.6118 1.44402 57.2504 3.86437 57.2885 6.58186V12.084H48.8142V22.6137H44.8055C42.1871 22.3021 39.9066 24.6793 40.2446 27.325V66.1703H39.1925V27.0949C38.9354 24.0803 41.5158 21.4011 44.658 21.5928H47.6525V11.1062H56.1983V7.07073C55.9412 3.41385 59.0453 0.317719 62.673 0.509429H68.5194C71.6758 0.509429 74.2562 3.14545 74.2562 6.30868L74.3752 7.30078L74.2562 11.1062H82.9067V21.4011L84.592 21.473C84.8634 21.473 85.0776 21.5928 85.3871 21.5928H86.7392C89.3576 21.703 91.6381 24.1905 91.4476 26.908L91.4191 66.1703Z" fill="white"/>
<path fill-rule="evenodd" clip-rule="evenodd" d="M1.39017 84.6466V76.6427H0V76.3024H4.28001V76.6427H2.88984V80.3379H6.59855V76.6427H5.29407V76.3024H9.48838V76.6427H8.14106V84.6466H9.48838V84.9869H5.29407V84.6466H6.59855V80.6782H2.88984V84.6466H4.28001V84.9869H0V84.6466H1.39017ZM17.0201 85.1738C15.887 85.1738 14.9538 84.7137 14.1731 83.7743C13.3732 82.8397 13.0114 81.8189 13.0114 80.7597C13.0114 79.4848 13.4161 78.3824 14.1969 77.4862C15.0348 76.5756 15.9679 76.1251 17.0439 76.1251C18.0579 76.1251 19.0053 76.5756 19.7861 77.4862C20.5669 78.4208 20.9858 79.4848 20.9858 80.6494C20.9858 81.8141 20.5669 82.9068 19.7861 83.8174C18.9625 84.7137 18.0579 85.1738 17.0201 85.1738ZM17.0201 76.4653C16.5583 76.4653 16.1155 76.5324 15.7394 76.7673C15.3728 76.983 15.1443 77.3616 14.9967 77.8936C14.8443 78.4639 14.8063 79.3602 14.8063 80.7213C14.8063 81.6272 14.8443 82.3748 14.9158 82.9452C14.9967 83.4772 15.1824 83.9277 15.4823 84.3063C15.8203 84.6849 16.3059 84.8335 16.9772 84.8335C17.3819 84.8335 17.8008 84.7137 18.2055 84.5364C18.6245 84.3063 18.8815 83.8558 19.0053 83.204C19.1529 82.5665 19.191 81.5888 19.191 80.2708C19.191 79.063 19.1101 78.1907 18.9625 77.745C18.8149 77.2945 18.5435 76.9542 18.2055 76.7673C17.8818 76.5324 17.4628 76.4653 17.0201 76.4653ZM31.7692 76.6427H30.3505V76.3024H33.4164V76.6427H32.0786V81.886C32.0786 82.648 31.9977 83.204 31.893 83.5443C31.7692 83.9277 31.5788 84.2248 31.2836 84.4549C30.9884 84.7137 30.6075 84.9054 30.2029 85.0252C29.7839 85.1355 29.3792 85.1738 28.9222 85.1738C27.9891 85.1738 27.2749 85.0252 26.8703 84.7137C26.4132 84.4165 26.1561 84.0763 26.0466 83.6257C25.9276 83.204 25.8991 82.6097 25.8991 81.886V76.6427H24.6565V76.3024H28.7746V76.6427H27.4225V81.7374C27.4225 82.418 27.4225 82.9883 27.5035 83.3957C27.5749 83.7743 27.7367 84.1146 28.0319 84.3878C28.3271 84.6466 28.746 84.7952 29.3792 84.7952C29.8648 84.7952 30.3124 84.6849 30.6885 84.498C31.0931 84.2632 31.3645 84.0092 31.5121 83.6689C31.7025 83.3286 31.7692 82.6911 31.7692 81.7374V76.6427ZM42.0384 76.2353L42.0812 78.4639H41.7813C41.3671 77.1076 40.6101 76.4653 39.5294 76.4653C38.9343 76.4653 38.4344 76.6139 38.1392 76.9542C37.8012 77.2945 37.6108 77.6348 37.6108 77.9751C37.6108 78.3153 37.7631 78.6125 38.0297 78.833C38.3296 79.063 38.8153 79.2499 39.5722 79.3602C40.2721 79.4848 40.8386 79.6717 41.2147 79.8203C41.6194 80.012 41.9336 80.3091 42.1859 80.7597C42.443 81.1814 42.6049 81.6703 42.6049 82.2023C42.6049 83.0554 42.2954 83.7743 41.7813 84.3446C41.2147 84.9054 40.5434 85.1738 39.7198 85.1738C39.0819 85.1738 38.4106 84.9437 37.7345 84.4165L37.1251 84.9869H36.9109V82.5665H37.2061C37.4394 83.3286 37.8012 83.8845 38.263 84.2632C38.7058 84.6466 39.1914 84.8335 39.7579 84.8335C40.2721 84.8335 40.772 84.6849 41.2147 84.3063C41.6622 83.966 41.8908 83.5155 41.8908 82.9883C41.8908 82.4994 41.7432 82.1208 41.4052 81.8189C41.11 81.5217 40.6101 81.2917 39.9055 81.1814C39.1914 81.0568 38.6677 80.9082 38.2868 80.7597C37.925 80.6111 37.6108 80.3091 37.3584 79.9305C37.1013 79.5519 36.9395 79.1014 36.9395 78.6556C36.9395 77.9751 37.168 77.4047 37.6536 76.8727C38.1011 76.3839 38.7486 76.1251 39.5294 76.1251C40.2054 76.1251 40.7958 76.3024 41.3671 76.7673C41.5527 76.6139 41.6622 76.427 41.7813 76.2353H42.0384ZM49.1225 76.6427V80.3379H49.8652C50.1651 80.3379 50.3937 80.3379 50.5841 80.2708C50.7698 80.2277 50.9602 80.0791 51.1078 79.849C51.2554 79.5902 51.322 79.2116 51.3649 78.7227H51.7029V82.3748H51.3649C51.322 81.699 51.1744 81.2485 50.9602 81.0185C50.7317 80.8028 50.3508 80.6782 49.8652 80.6782H49.1225V84.6466H50.8793C51.8505 84.6466 52.5265 84.4165 52.9455 84.0092C53.3073 83.5874 53.5358 82.9452 53.6168 82.0777H53.9548L53.8358 84.9869H46.2374V84.6466H47.5847V76.6427H46.2374V76.3024H53.5358L53.6882 78.6125H53.3501C53.2406 77.9319 53.0121 77.4047 52.6741 77.1076C52.3361 76.8056 51.741 76.6427 50.9602 76.6427H49.1225ZM68.0326 85.1738C66.9138 85.1738 65.9807 84.7137 65.1856 83.7743C64.4001 82.8397 64.024 81.8189 64.024 80.7597C64.024 79.4848 64.4429 78.3824 65.2237 77.4862C66.0473 76.5756 66.9948 76.1251 68.0707 76.1251C69.0848 76.1251 70.0274 76.5756 70.813 77.4862C71.5937 78.4208 72.0127 79.4848 72.0127 80.6494C72.0127 81.8141 71.5937 82.9068 70.813 83.8174C69.9893 84.7137 69.0848 85.1738 68.0326 85.1738ZM68.0326 76.4653C67.5851 76.4653 67.1423 76.5324 66.7615 76.7673C66.3854 76.983 66.1711 77.3616 66.0093 77.8936C65.8569 78.4639 65.8331 79.3602 65.8331 80.7213C65.8331 81.6272 65.8569 82.3748 65.9378 82.9452C66.0093 83.4772 66.1949 83.9277 66.5044 84.3063C66.8424 84.6849 67.328 84.8335 68.0041 84.8335C68.4087 84.8335 68.8277 84.7137 69.2324 84.5364C69.6513 84.3063 69.9084 83.8558 70.0274 83.204C70.175 82.5665 70.2036 81.5888 70.2036 80.2708C70.2036 79.063 70.1369 78.1907 69.9893 77.745C69.8417 77.2945 69.5704 76.9542 69.2324 76.7673C68.8943 76.5324 68.4897 76.4653 68.0326 76.4653ZM76.9925 84.6466V76.6427H75.6452V76.3024H82.9055L83.0246 78.9144H82.7294C82.7294 78.833 82.6484 78.531 82.5009 78.0422C82.3485 77.515 82.12 77.1747 81.8629 76.9542C81.5534 76.7673 81.0678 76.6427 80.3918 76.6427H78.5303V80.381H78.8683C79.2349 80.381 79.5444 80.381 79.7586 80.3091C79.9871 80.2708 80.1776 80.1222 80.3251 79.8922C80.4727 79.6717 80.5822 79.2931 80.6251 78.7611H80.9583V82.418H80.6251C80.5822 81.886 80.5156 81.4786 80.368 81.2485C80.2156 80.9897 80.0538 80.8411 79.8395 80.8028C79.611 80.7213 79.3158 80.6782 78.8683 80.6782H78.5303V84.6466H80.03V84.9869H75.6452V84.6466H76.9925ZM100.259 76.6427V85.1738H99.9875L94.3363 76.6139H94.2935V84.6466H95.7646V84.9869H92.7272V84.6466H93.9983V76.6427H92.6082V76.3024H95.9122L99.9208 82.3748H99.9494V76.6427H98.5307V76.3024H101.568V76.6427H100.259ZM106.357 84.6466V76.6427H104.967V76.3024H109.314V76.6427H107.895V84.6466H109.314V84.9869H104.967V84.6466H106.357ZM118.083 76.2353L118.155 78.4639H117.831C117.412 77.1076 116.655 76.4653 115.575 76.4653C114.984 76.4653 114.522 76.6139 114.184 76.9542C113.846 77.2945 113.661 77.6348 113.661 77.9751C113.661 78.3153 113.808 78.6125 114.118 78.833C114.375 79.063 114.86 79.2499 115.617 79.3602C116.317 79.4848 116.884 79.6717 117.265 79.8203C117.669 80.012 117.979 80.3091 118.236 80.7597C118.493 81.1814 118.655 81.6703 118.655 82.2023C118.655 83.0554 118.383 83.7743 117.831 84.3446C117.265 84.9054 116.589 85.1738 115.765 85.1738C115.132 85.1738 114.456 84.9437 113.78 84.4165L113.175 84.9869H112.956V82.5665H113.256C113.485 83.3286 113.846 83.8845 114.308 84.2632C114.751 84.6466 115.237 84.8335 115.803 84.8335C116.317 84.8335 116.817 84.6849 117.265 84.3063C117.707 83.966 117.936 83.5155 117.936 82.9883C117.936 82.4994 117.788 82.1208 117.45 81.8189C117.155 81.5217 116.655 81.2917 115.955 81.1814C115.279 81.0568 114.713 80.9082 114.332 80.7597C113.999 80.6111 113.661 80.3091 113.404 79.9305C113.146 79.5519 112.985 79.1014 112.985 78.6556C112.985 77.9751 113.213 77.4047 113.699 76.8727C114.146 76.3839 114.794 76.1251 115.575 76.1251C116.251 76.1251 116.846 76.3024 117.412 76.7673C117.598 76.6139 117.707 76.427 117.831 76.2353H118.083ZM125.172 76.6427V80.3379H125.953C126.21 80.3379 126.439 80.3379 126.629 80.2708C126.815 80.2277 127.005 80.0791 127.153 79.849C127.305 79.5902 127.372 79.2116 127.41 78.7227H127.748V82.3748H127.41C127.372 81.699 127.224 81.2485 127.005 81.0185C126.777 80.8028 126.401 80.6782 125.953 80.6782H125.172V84.6466H126.924C127.896 84.6466 128.615 84.4165 128.991 84.0092C129.352 83.5874 129.586 82.9452 129.667 82.0777H130L129.881 84.9869H122.283V84.6466H123.635V76.6427H122.283V76.3024H129.586L129.733 78.6125H129.395C129.286 77.9319 129.057 77.4047 128.719 77.1076C128.381 76.8056 127.791 76.6427 127.005 76.6427H125.172ZM125.387 75.5979L125.239 75.4493L126.52 73.9012C126.777 73.5993 126.924 73.4076 127.072 73.2877C127.181 73.2206 127.305 73.1392 127.453 73.1392C127.6 73.1392 127.71 73.2206 127.829 73.2877C127.938 73.4076 127.977 73.5178 127.977 73.628C127.977 73.8197 127.896 73.9683 127.791 74.0881C127.639 74.2367 127.372 74.4284 127.005 74.6441L125.387 75.5979Z" fill="white"/>
<path fill-rule="evenodd" clip-rule="evenodd" d="M37.3965 102.375V105.121H38.4344V105.351H35.2637V105.121H36.2635V99.1255H35.2637V98.8571H38.5582C39.3009 98.8571 39.8674 99.02 40.2435 99.3603C40.6482 99.7006 40.8386 100.108 40.8386 100.597C40.8386 101.124 40.6482 101.546 40.2435 101.886C39.8674 102.212 39.2342 102.375 38.3297 102.375H37.3965ZM37.3965 99.1255V102.145H38.0297C38.3677 102.145 38.6248 102.102 38.8534 102.035C39.0438 101.996 39.2342 101.843 39.3818 101.613C39.5722 101.383 39.6389 101.014 39.6389 100.525C39.6389 100.065 39.5722 99.7677 39.4199 99.5376C39.3009 99.3603 39.1104 99.2357 38.9343 99.1686C38.7486 99.1255 38.5153 99.1255 38.263 99.1255H37.3965ZM44.7378 99.1255V101.886H45.3329C45.5233 101.886 45.709 101.886 45.8566 101.843C46.0089 101.805 46.1279 101.694 46.2374 101.507C46.3469 101.316 46.4279 101.043 46.4279 100.678H46.6802V103.42H46.4279C46.4279 102.893 46.3041 102.552 46.1279 102.375C45.9661 102.212 45.6709 102.145 45.3329 102.145H44.7378V105.121H46.047C46.7897 105.121 47.3182 104.93 47.6276 104.632C47.8847 104.33 48.0704 103.842 48.1132 103.161H48.3703L48.3037 105.351H42.6049V105.121H43.619V99.1255H42.6049V98.8571H48.0704L48.1799 100.597H47.9228C47.8419 100.065 47.6943 99.7006 47.4372 99.4658C47.1658 99.2357 46.7231 99.1255 46.1279 99.1255H44.7378ZM51.4458 105.121V99.1255H50.4318V98.8571H53.9548C54.4023 98.8571 54.7784 98.8954 55.0784 98.9769C55.3735 99.044 55.6449 99.2357 55.8591 99.5089C56.0496 99.7246 56.1543 100.027 56.1543 100.362C56.1543 100.784 56.0067 101.086 55.7115 101.354C55.3735 101.613 54.8451 101.805 54.1024 101.915V101.953C54.6308 102.063 55.0784 102.25 55.4116 102.552C55.7925 102.893 55.9401 103.396 55.9401 104.139C55.9401 104.56 56.0067 104.819 56.0877 104.93C56.1972 105.049 56.3162 105.121 56.4923 105.121C56.6161 105.121 56.7637 105.078 56.9113 105.049V105.27C56.6161 105.39 56.3447 105.418 56.0877 105.418C55.564 105.418 55.1831 105.27 54.9689 104.968C54.7403 104.671 54.6594 104.398 54.6594 104.1V103.271C54.6594 103.012 54.588 102.715 54.4023 102.442C54.2119 102.145 53.8072 102.035 53.1597 102.035H52.5646V105.121H53.5787V105.351H50.4318V105.121H51.4458ZM52.5646 99.1255V101.805H53.4311C53.8072 101.805 54.1024 101.761 54.2928 101.723C54.4832 101.656 54.6308 101.546 54.7403 101.316C54.8879 101.124 54.926 100.784 54.926 100.338C54.926 99.9546 54.8879 99.6575 54.7403 99.5089C54.6308 99.3172 54.4832 99.1974 54.3214 99.1686C54.1452 99.1255 53.9548 99.1255 53.6453 99.1255H52.5646ZM59.6488 105.121V99.1255H58.6395V98.8571H64.0621L64.143 100.827H63.9145C63.9145 100.745 63.8764 100.554 63.7669 100.146C63.6574 99.7677 63.4717 99.5089 63.2813 99.3603C63.0528 99.1974 62.6719 99.1255 62.1625 99.1255H60.7723V101.915H61.0294C61.3389 101.915 61.5531 101.915 61.7007 101.886C61.8531 101.843 62.0006 101.723 62.1197 101.546C62.2672 101.354 62.3387 101.086 62.3387 100.702H62.6053V103.463H62.3387C62.3387 103.056 62.2672 102.739 62.1625 102.552C62.0387 102.375 61.934 102.25 61.7435 102.212C61.596 102.183 61.3627 102.145 61.0294 102.145H60.7723V105.121H61.8911V105.351H58.6395V105.121H59.6488ZM71.151 99.1255H70.0941V98.8571H72.4174V99.1255H71.4033V103.056C71.4033 103.611 71.3367 104.033 71.2557 104.292C71.1891 104.56 71.0272 104.781 70.813 104.968C70.5845 105.16 70.3274 105.27 69.9893 105.39C69.6894 105.457 69.3562 105.5 69.0419 105.5C68.3421 105.5 67.8136 105.39 67.4804 105.16C67.1804 104.93 66.9519 104.671 66.871 104.33C66.8043 104.033 66.7615 103.568 66.7615 103.056V99.1255H65.8331V98.8571H68.8944V99.1255H67.885V102.931C67.885 103.463 67.9231 103.885 67.966 104.139C68.0326 104.441 68.1517 104.714 68.3707 104.901C68.5563 105.121 68.8943 105.203 69.3562 105.203C69.718 105.203 70.056 105.121 70.3512 104.968C70.6654 104.819 70.8796 104.632 70.9987 104.374C71.1082 104.1 71.151 103.611 71.151 102.931V99.1255ZM74.0361 98.8571H76.3165L77.7067 103.463H77.7353L79.1254 98.8571H81.3773V99.1255H80.3918V105.121H81.3773V105.351H78.3399V105.121H79.3159V99.02L77.3972 105.351H77.183L75.2263 99.02V105.121H76.2118V105.351H74.0361V105.121H74.9692V99.1255H74.0361V98.8571ZM85.4145 99.1255V101.886H85.9811C86.2096 101.886 86.3572 101.886 86.5048 101.843C86.6571 101.805 86.7618 101.694 86.8856 101.507C86.9904 101.316 87.0713 101.043 87.0999 100.678H87.3284V103.42H87.0999C87.0713 102.893 86.9523 102.552 86.8047 102.375C86.6143 102.212 86.3572 102.145 85.9811 102.145H85.4145V105.121H86.738C87.4807 105.121 87.9663 104.93 88.2615 104.632C88.571 104.33 88.7186 103.842 88.7852 103.161H89.0185L88.9756 105.351H83.2388V105.121H84.2529V99.1255H83.2388V98.8571H88.7186L88.8281 100.597H88.5995C88.49 100.065 88.3424 99.7006 88.0711 99.4658C87.814 99.2357 87.3712 99.1255 86.7618 99.1255H85.4145ZM94.8601 98.79L94.9029 100.487H94.6696C94.3364 99.4657 93.7651 98.9769 92.9462 98.9769C92.4987 98.9769 92.1606 99.0871 91.9036 99.3603C91.675 99.576 91.5275 99.8492 91.5275 100.108C91.5275 100.367 91.637 100.554 91.8655 100.745C92.0512 100.932 92.4177 101.043 92.9843 101.167C93.5508 101.234 93.9555 101.354 94.2269 101.507C94.522 101.656 94.7506 101.886 94.9696 102.183C95.1552 102.524 95.2647 102.864 95.2647 103.271C95.2647 103.909 95.0505 104.441 94.6315 104.862C94.2269 105.27 93.7413 105.5 93.0938 105.5C92.6082 105.5 92.1226 105.308 91.637 104.93L91.1894 105.351H90.999V103.544H91.2323C91.418 104.1 91.675 104.522 92.0131 104.819C92.3511 105.121 92.7272 105.241 93.1319 105.241C93.5127 105.241 93.8888 105.121 94.2269 104.862C94.5649 104.589 94.7125 104.249 94.7125 103.842C94.7125 103.501 94.5887 103.204 94.3744 102.974C94.1459 102.739 93.7651 102.591 93.2556 102.485C92.7272 102.404 92.3082 102.293 92.0512 102.183C91.7845 102.063 91.5275 101.886 91.337 101.575C91.1514 101.273 91.0418 100.975 91.0418 100.597C91.0418 100.108 91.2323 99.7006 91.5655 99.2788C91.9036 98.8954 92.3892 98.7085 92.9462 98.7085C93.4699 98.7085 93.9269 98.8571 94.3364 99.1974C94.4839 99.0871 94.5649 98.9385 94.6696 98.79H94.8601Z" fill="white"/>
<path fill-rule="evenodd" clip-rule="evenodd" d="M9.42114 91.1553H122.334V91.5722H9.42114V91.1553Z" fill="white"/>
</g>
<defs>
<clipPath id="clip0_577_7829">
<rect width="130" height="105" fill="white" transform="translate(0 0.5)"/>
</clipPath>
</defs>
</svg>
